<?xml version="1.0" ?><!DOCTYPE svg  PUBLIC '-//W3C//DTD SVG 1.1//EN'  'http://www.w3.org/Graphics/SVG/1.1/DTD/svg11.dtd'><svg enable-background="new 0 0 128 128" height="128px" id="Layer_1" version="1.1" viewBox="0 0 128 128" width="128px" xml:space="preserve" xmlns="http://www.w3.org/2000/svg" xmlns:xlink="http://www.w3.org/1999/xlink"><path d="M25.502,109.092l-8.986-8.988l43.051-43.052c0.781-0.781,2.047-0.781,2.828,0c0.781,0.781,0.781,2.047,0,2.828  l-40.223,40.224l3.33,3.331L65.99,62.947c0.781-0.781,2.047-0.781,2.828,0c0.781,0.781,0.781,2.047,0,2.828L25.502,109.092z"/><path d="M47.025,102.92c-0.512,0-1.023-0.195-1.414-0.586l-7.591-7.588c-0.781-0.781-0.781-2.048,0-2.829  c0.779-0.781,2.047-0.78,2.828-0.001l7.591,7.589c0.781,0.781,0.781,2.048,0,2.829C48.05,102.725,47.537,102.92,47.025,102.92z"/><path d="M43.226,113.95c-0.512,0-1.023-0.195-1.414-0.586l-11.205-11.205c-0.781-0.78-0.781-2.048,0-2.828s2.047-0.78,2.828,0  l11.205,11.205c0.781,0.78,0.781,2.048,0,2.828C44.249,113.755,43.737,113.95,43.226,113.95z"/><g><g><g><path d="M97.075,42.055L97.075,42.055c-7.74-0.001-14.04-6.299-14.042-14.04c0-7.74,6.299-14.038,14.041-14.041     c3.75,0,7.276,1.46,9.928,4.112c2.652,2.652,4.113,6.178,4.112,9.928C111.114,35.756,104.816,42.055,97.075,42.055z      M97.075,17.974c-5.537,0.001-10.042,4.505-10.042,10.04c0.002,5.535,4.507,10.04,10.042,10.041     c5.535,0,10.039-4.504,10.039-10.041c0-2.682-1.044-5.203-2.94-7.099S99.756,17.974,97.075,17.974z"/><path d="M97.077,67.234c-7.741,0-14.042-6.298-14.044-14.039c0.002-7.742,6.302-14.042,14.042-14.042     c7.742,0.001,14.04,6.3,14.04,14.042c0.001,3.749-1.459,7.275-4.112,9.927C104.351,65.773,100.826,67.234,97.077,67.234z      M97.075,43.153c-5.535,0.001-10.04,4.506-10.042,10.042c0.002,5.535,4.507,10.039,10.044,10.039     c2.681,0,5.201-1.044,7.098-2.941s2.941-4.417,2.94-7.098C107.115,47.659,102.611,43.154,97.075,43.153z"/></g><g><path d="M72.934,42.055h-0.005c-7.738,0-14.038-6.297-14.041-14.038c0.002-7.744,6.302-14.042,14.042-14.042     c7.741,0.001,14.039,6.299,14.039,14.039c0.001,3.749-1.459,7.275-4.11,9.928C80.207,40.594,76.683,42.055,72.934,42.055z      M72.93,17.975c-5.535,0-10.04,4.504-10.042,10.041c0.003,5.535,4.507,10.039,10.042,10.039h0.004c2.68,0,5.2-1.044,7.097-2.941     c1.896-1.896,2.939-4.418,2.938-7.099C82.969,22.479,78.465,17.976,72.93,17.975z"/><path d="M72.93,67.234c-7.742,0-14.04-6.299-14.04-14.042c-0.001-3.75,1.459-7.275,4.11-9.927     c2.651-2.652,6.179-4.113,9.93-4.113c7.74,0,14.039,6.299,14.041,14.042C86.969,60.937,80.67,67.234,72.93,67.234z M72.93,43.153     c-2.683,0-5.205,1.044-7.102,2.941c-1.896,1.896-2.939,4.417-2.938,7.099c0,5.538,4.504,10.042,10.04,10.042     c5.535,0,10.039-4.504,10.041-10.04C82.969,47.658,78.465,43.153,72.93,43.153z"/></g></g><path d="M85.002,48.003c-1.976,0-3.833-0.769-5.231-2.167c-2.884-2.884-2.884-7.578-0.001-10.463   c1.398-1.398,3.257-2.168,5.233-2.168c1.976,0,3.834,0.77,5.231,2.168c2.885,2.887,2.883,7.581-0.003,10.464   C88.836,47.233,86.979,48.003,85.002,48.003z M85.003,37.204c-0.908,0-1.762,0.354-2.404,0.996c-1.324,1.326-1.324,3.482,0,4.807   c1.285,1.283,3.522,1.284,4.806,0c1.326-1.325,1.326-3.481,0.001-4.808C86.764,37.558,85.91,37.204,85.003,37.204z"/></g></svg>