<?xml version="1.0" standalone="no"?>
<!DOCTYPE svg PUBLIC "-//W3C//DTD SVG 20010904//EN"
 "http://www.w3.org/TR/2001/REC-SVG-20010904/DTD/svg10.dtd">
<svg version="1.0" xmlns="http://www.w3.org/2000/svg"
 width="700.000000pt" height="700.000000pt" viewBox="0 0 700.000000 700.000000"
 preserveAspectRatio="xMidYMid meet">
<metadata>
Created by potrace 1.11, written by Peter Selinger 2001-2013
</metadata>
<g transform="translate(0.000000,700.000000) scale(0.100000,-0.100000)"
fill="#000000" stroke="none">
<path d="M3938 6235 c-2 -2 -29 -5 -60 -9 -162 -17 -358 -124 -468 -257 -135
-163 -191 -321 -185 -529 4 -128 22 -197 82 -320 39 -79 62 -110 138 -186 49
-50 114 -104 142 -120 29 -16 53 -31 53 -34 0 -3 -19 -16 -43 -29 -144 -82
-275 -241 -330 -402 -34 -98 -38 -117 -42 -229 -3 -84 1 -130 19 -220 5 -23
-122 -153 -1164 -1195 -644 -644 -1170 -1174 -1170 -1179 0 -10 474 -486 484
-486 4 0 79 72 168 161 l161 161 286 -285 c157 -157 296 -290 308 -296 49 -25
120 -1 142 46 15 33 13 84 -4 108 -8 11 -141 146 -296 301 l-281 281 122 122
c67 67 126 121 130 119 5 -2 94 -87 198 -189 134 -133 198 -189 219 -193 63
-14 133 41 133 104 0 40 -29 76 -209 255 -99 99 -181 183 -181 187 0 4 324
331 720 726 l719 720 48 -14 c92 -28 230 -36 337 -20 184 27 401 164 502 318
l31 47 37 -53 c103 -150 286 -267 474 -306 81 -16 228 -19 291 -6 282 61 500
253 590 523 60 177 44 394 -40 568 -62 128 -194 269 -309 331 l-40 21 60 37
c115 71 237 207 291 326 9 19 21 46 28 60 6 14 20 65 30 113 43 214 -2 428
-127 602 -119 164 -286 268 -502 312 -37 7 -199 7 -244 -1 -204 -34 -383 -148
-508 -322 l-31 -43 -28 42 c-112 167 -321 298 -515 323 -58 7 -162 13 -166 9z
m200 -240 c300 -87 470 -412 368 -704 -138 -394 -632 -497 -922 -192 -157 165
-187 444 -69 645 79 135 233 242 381 265 72 11 176 5 242 -14z m1321 -1 c224
-64 387 -271 395 -501 11 -297 -207 -546 -498 -570 -166 -13 -311 41 -432 161
-95 95 -140 186 -156 314 -11 80 -10 105 5 175 46 227 225 401 447 436 65 11
175 4 239 -15z m-730 -1048 c92 -49 127 -156 82 -249 -22 -45 -88 -96 -128
-98 -13 -1 -29 -2 -35 -2 -7 -1 -29 3 -48 7 -159 37 -183 258 -37 337 52 28
117 30 166 5z m-563 -338 c145 -51 248 -145 315 -284 145 -303 -11 -652 -337
-758 -29 -9 -87 -18 -130 -20 -162 -7 -295 45 -409 159 -109 108 -155 212
-160 361 -4 104 12 188 51 267 28 56 85 131 121 160 13 10 29 24 36 31 28 28
116 72 186 93 103 30 226 27 327 -9z m1314 3 c211 -66 366 -272 375 -496 5
-152 -53 -304 -159 -409 -176 -176 -440 -212 -661 -89 -65 36 -163 134 -202
203 -123 216 -83 493 97 664 71 67 135 105 229 133 94 27 222 25 321 -6z
m-2097 -991 c15 -22 54 -63 86 -92 l59 -52 -1063 -1063 c-585 -585 -1067
-1063 -1071 -1063 -5 0 -47 39 -95 88 l-87 87 1067 1067 c586 587 1068 1068
1071 1068 3 0 18 -18 33 -40z"/>
</g>
</svg>
